<?xml version="1.0" encoding="UTF-8"?>
<svg width="15px" height="16px" viewBox="0 0 15 16" version="1.1" xmlns="http://www.w3.org/2000/svg" xmlns:xlink="http://www.w3.org/1999/xlink">
    <!-- Generator: Sketch 45.2 (43514) - http://www.bohemiancoding.com/sketch -->
    <title></title>
    <desc>Created with Sketch.</desc>
    <defs></defs>
    <g id="Symbols" stroke="none" stroke-width="1" fill="none" fill-rule="evenodd">
        <g id="BG/desktop-base" transform="translate(-20.000000, -2.000000)" fill="#000000">
            <g id="Base" transform="translate(-133.000000, 0.000000)">
                <g id="Menubar" transform="translate(133.000000, 0.000000)">
                    <g id="finder-menu-items" transform="translate(20.000000, 1.000000)">
                        <path d="M7.752,5.328 C8.0053346,5.328 8.45499677,5.22033441 9.101,5.005 C9.74700323,4.78966559 10.2979977,4.682 10.754,4.682 C11.5140038,4.682 12.1916637,4.88466464 12.787,5.29 C12.9516675,5.4166673 13.1163325,5.55599924 13.281,5.708 C13.4456675,5.86000076 13.6103325,6.03733232 13.775,6.24 C13.2809975,6.67066882 12.9200011,7.05066502 12.692,7.38 C12.2739979,7.96266958 12.065,8.61499639 12.065,9.337 C12.065,10.1223373 12.2866645,10.8316635 12.73,11.465 C13.1606688,12.0856698 13.6609972,12.4846658 14.231,12.662 C14.1043327,13.0420019 13.946001,13.431498 13.756,13.8305 C13.5659991,14.229502 13.3380013,14.6316646 13.072,15.037 C12.2613293,16.2656728 11.4443375,16.88 10.621,16.88 C10.2789983,16.88 9.82933612,16.7786677 9.272,16.576 C8.72733061,16.3859991 8.25233536,16.291 7.847,16.291 C7.42899791,16.291 6.97300247,16.3923323 6.479,16.595 C5.94699734,16.8103344 5.52900152,16.918 5.225,16.918 C4.26232852,16.918 3.31233802,16.1010082 2.375,14.467 C1.43766198,12.8456586 0.969,11.2496745 0.969,9.679 C0.969,8.23499278 1.32366312,7.05067129 2.033,6.126 C2.75500361,5.21399544 3.66066122,4.758 4.75,4.758 C5.21866901,4.758 5.78233004,4.85299905 6.441,5.043 C7.11233669,5.23300095 7.54933232,5.328 7.752,5.328 Z M10.659,1.49 C10.659,1.89533536 10.564001,2.33233099 10.374,2.801 C10.1839991,3.26966901 9.89266863,3.70666464 9.5,4.112 C9.13266483,4.45400171 8.78433498,4.68199943 8.455,4.796 C8.21433213,4.85933365 7.89133536,4.90999981 7.486,4.948 C7.49866673,4.01066198 7.74249763,3.19683679 8.2175,2.5065 C8.69250238,1.81616322 9.48732776,1.3443346 10.602,1.091 C10.6273335,1.17966711 10.6431666,1.25566635 10.6495,1.319 C10.6558334,1.38233365 10.659,1.43933308 10.659,1.49 Z" id=""></path>
                    </g>
                </g>
            </g>
        </g>
    </g>
</svg>