<?xml version="1.0" encoding="UTF-8"?>
<svg width="40px" height="40px" viewBox="0 0 40 40" version="1.1" xmlns="http://www.w3.org/2000/svg" xmlns:xlink="http://www.w3.org/1999/xlink">
    <!-- Generator: Sketch 46.1 (44463) - http://www.bohemiancoding.com/sketch -->
    <title>icons/small/folder - team member</title>
    <desc>Created with Sketch.</desc>
    <defs></defs>
    <g id="Symbols" stroke="none" stroke-width="1" fill="none" fill-rule="evenodd">
        <g id="icons/small/folder---team-member">
            <g id="folder">
                <g id="Group-2" transform="translate(5.000000, 7.000000)">
                    <path d="M13.4221242,4 L28.4917359,4 C29.3313451,4 30,4.66863283 30,5.49343323 L30,23.5065668 C30,24.3250769 29.3247272,25 28.4917359,25 L1.50826408,25 C0.66865487,25 0,24.3313672 0,23.5065668 L0,5.00458138 L0,2.49333114 C0,1.66223875 0.671360676,1 1.49952604,1 L9.30491758,1 C9.86938477,1 10.5337859,1.38725027 10.8067558,1.86494768 L11.8219666,3.64156652 C11.8219666,3.64156652 12.2222222,4.00000012 13.4221242,4 Z" id="folder" fill="#C996FF"></path>
                    <path d="M13.4221242,3 L28.4917359,3 C29.3313451,3 30,3.66863283 30,4.49343323 L30,22.5065668 C30,23.3250769 29.3247272,24 28.4917359,24 L1.50826408,24 C0.66865487,24 0,23.3313672 0,22.5065668 L0,4.00458138 L0,1.49333114 C0,0.662238747 0.671360676,0 1.49952604,0 L9.30491758,0 C9.86938477,0 10.5337859,0.387250265 10.8067558,0.864947676 L11.8219666,2.64156652 C11.8219666,2.64156652 12.2222222,3.00000012 13.4221242,3 Z" id="folder" fill="#D6B9F6"></path>
                </g>
                <path d="M20,20 C18.8954305,20 18,19.1045695 18,18 C18,16.8954305 18.8954305,16 20,16 C21.1045695,16 22,16.8954305 22,18 C22,19.1045695 21.1045695,20 20,20 Z M16.8232777,23.8384556 C17.2182628,22.8231046 18.418609,22 19.5124987,22 L20.4875013,22 C21.5777319,22 22.7803087,22.8194325 23.1767223,23.8384556 L23.6354061,25.0175507 C23.8367657,25.535167 23.5469637,25.9547779 23.0029699,25.9547779 L16.9970301,25.9547779 C16.4463856,25.9547779 16.1646423,25.5315474 16.3645939,25.0175507 L16.8232777,23.8384556 Z" id="Combined-Shape" fill="#BA83F5"></path>
            </g>
        </g>
    </g>
</svg>