<?xml version="1.0" encoding="UTF-8"?>
<svg width="40px" height="40px" viewBox="0 0 40 40" version="1.1" xmlns="http://www.w3.org/2000/svg" xmlns:xlink="http://www.w3.org/1999/xlink">
    <!-- Generator: Sketch 46.1 (44463) - http://www.bohemiancoding.com/sketch -->
    <title>icons/small/folder - default</title>
    <desc>Created with Sketch.</desc>
    <defs></defs>
    <g id="Symbols" stroke="none" stroke-width="1" fill="none" fill-rule="evenodd">
        <g id="icons/small/folder---default">
            <g id="folder"></g>
            <g id="Group-2" transform="translate(5.000000, 7.000000)">
                <path d="M13.4221242,4 L28.4917359,4 C29.3313451,4 30,4.66863283 30,5.49343323 L30,23.5065668 C30,24.3250769 29.3247272,25 28.4917359,25 L1.50826408,25 C0.66865487,25 0,24.3313672 0,23.5065668 L0,5.00458138 L0,2.49333114 C0,1.66223875 0.671360676,1 1.49952604,1 L9.30491758,1 C9.86938477,1 10.5337859,1.38725027 10.8067558,1.86494768 L11.8219666,3.64156652 C11.8219666,3.64156652 12.2222222,4.00000012 13.4221242,4 Z" id="folder" fill="#71B9F4"></path>
                <path d="M13.4221242,3 L28.4917359,3 C29.3313451,3 30,3.66863283 30,4.49343323 L30,22.5065668 C30,23.3250769 29.3247272,24 28.4917359,24 L1.50826408,24 C0.66865487,24 0,23.3313672 0,22.5065668 L0,4.00458138 L0,1.49333114 C0,0.662238747 0.671360676,0 1.49952604,0 L9.30491758,0 C9.86938477,0 10.5337859,0.387250265 10.8067558,0.864947676 L11.8219666,2.64156652 C11.8219666,2.64156652 12.2222222,3.00000012 13.4221242,3 Z" id="folder" fill="#92CEFF"></path>
            </g>
        </g>
    </g>
</svg>